#!OML:ASF E:\emotionWalksFemale\Project 1\Capture day 1\Session 1\Female1.ASF
:FULLY-SPECIFIED
:DEGREES
2957
root 7.67043 15.2807 39.2874 363.83 194.328 -358.353
lowerback 7.0874 2.5147 -0.513454
upperback -3.48909 3.26069 -0.346864
thorax -7.65174 1.59939 -0.518368
lowerneck -2.37788 -7.22806 -10.879
upperneck 5.67984 -9.90914 9.65132
head 3.09698 -4.9235 4.26403
rclavicle 5.26438e-014 1.23246e-014
rhumerus -28.9584 5.18348 -87.4502
rradius 32.7947
rwrist 22.3989
rhand -4.87201 -51.452
rfingers 7.12502
rthumb 20.9164 279.656
lclavicle 5.26438e-014 1.23246e-014
lhumerus -37.0614 4.72344 70.5473
lradius 56.5116
lwrist 4.07249
lhand -4.92566 -28.0877
lfingers 7.12502
lthumb 20.8648 0.810307
rfemur -3.83379 10.6398 22.5817
rtibia 26.1554
rfoot -27.8771 -32.294
rtoes 14.9311
lfemur -11.8552 -18.3589 -22.8858
ltibia 29.0964
lfoot -21.241 15.3662
ltoes -48.2912
2958
root 7.66965 15.2798 39.2797 363.753 193.881 -358.302
lowerback 7.00043 2.52149 -0.497122
upperback -3.47937 3.26976 -0.372493
thorax -7.58837 1.60261 -0.550886
lowerneck -1.94206 -7.6056 -11.2348
upperneck 5.40739 -10.4661 10.0588
head 3.0425 -5.20958 4.42818
rclavicle 5.40834e-014 3.57812e-015
rhumerus -29.1778 5.04037 -87.4208
rradius 32.816
rwrist 22.5455
rhand -3.95179 -52.5138
rfingers 7.12502
rthumb 21.8003 278.694
lclavicle 5.40834e-014 3.57812e-015
lhumerus -37.3814 4.98093 70.3328
lradius 56.0557
lwrist 3.69646
lhand -4.73542 -28.5965
lfingers 7.12502
lthumb 21.0476 0.281262
rfemur -3.75856 10.8675 22.6051
rtibia 26.0643
rfoot -27.9753 -32.0825
rtoes 15.4035
lfemur -11.6851 -18.1208 -22.8888
ltibia 29.0875
lfoot -21.4454 15.5169
ltoes -47.8292
2959
root 7.66759 15.2798 39.2733 363.687 193.443 -358.223
lowerback 6.95589 2.55239 -0.384029
upperback -3.47321 3.31837 -0.432868
thorax -7.54552 1.6193 -0.681198
lowerneck -1.74366 -8.00577 -11.4607
upperneck 5.30506 -11.0391 10.345
head 3.06997 -5.49797 4.5213
rclavicle -2.75705e-014 -3.97569e-016
rhumerus -29.3724 4.93655 -87.359
rradius 32.9362
rwrist 22.1439
rhand -3.99522 -52.3823
rfingers 7.12502
rthumb 21.7586 278.821
lclavicle -2.75705e-014 -3.97569e-016
lhumerus -37.5626 5.24079 70.1826
lradius 55.4445
lwrist 3.59333
lhand -4.65475 -28.8724
lfingers 7.12502
lthumb 21.1251 -0.00323721
rfemur -3.74967 11.0021 22.6418
rtibia 26.0476
rfoot -27.575 -32.0814
rtoes 14.4749
lfemur -11.5102 -17.9195 -22.8562
ltibia 29.0091
lfoot -21.4396 15.7013
ltoes -47.8471
2960
root 7.66476 15.2841 39.2713 363.876 193.125 -358.113
lowerback 6.77462 2.53698 -0.235092
upperback -3.599 3.30474 -0.484589
thorax -7.5633 1.60161 -0.811194
lowerneck -1.48617 -8.3756 -11.7278
upperneck 5.18484 -11.5805 10.6756
head 3.08681 -5.77307 4.63826
rclavicle -2.94403e-014 3.97569e-016
rhumerus -29.6396 4.93012 -87.3127
rradius 32.984
rwrist 21.7602
rhand -5.06834 -51.8774
rfingers 7.12502
rthumb 20.7277 279.21
lclavicle -2.94403e-014 3.97569e-016
lhumerus -37.6332 5.77045 70.0446
lradius 54.5564
lwrist 3.34826
lhand -4.65345 -28.7612
lfingers 7.12502
lthumb 21.1264 0.107843
rfemur -4.04514 11.1081 22.6698
rtibia 26.0617
rfoot -27.2586 -32.1929
rtoes 13.4042
lfemur -11.6397 -18.2915 -22.7105
ltibia 28.9337
lfoot -21.5351 16.1276
ltoes -47.6272
2961
root 7.66287 15.2839 39.2693 363.884 192.799 -358.334
lowerback 6.82359 2.48853 -0.458864
upperback -3.63532 3.20997 -0.553302
thorax -7.64009 1.56304 -0.749472
lowerneck -1.16323 -8.73332 -11.9863
upperneck 4.96346 -12.0915 10.8763
head 3.05405 -6.0365 4.72072
rclavicle -3.25355e-014 -8.34896e-015
rhumerus -29.8247 4.91486 -87.2478
rradius 32.7952
rwrist 22.1292
rhand -6.5708 -51.7517
rfingers 7.12502
rthumb 19.2836 279.184
lclavicle -3.25355e-014 -8.34896e-015
lhumerus -37.667 6.64163 69.9323
lradius 53.5698
lwrist 2.83222
lhand -4.77293 -28.3984
lfingers 7.12502
lthumb 21.0116 0.483422
rfemur -4.05971 11.1122 22.3901
rtibia 26.1213
rfoot -27.2376 -32.0946
rtoes 13.3052
lfemur -11.4436 -18.607 -23.0186
ltibia 28.83
lfoot -21.8233 16.4819
ltoes -46.9001
2962
root 7.6646 15.2779 39.2683 363.662 192.342 -358.542
lowerback 7.05996 2.43797 -0.699141
upperback -3.57867 3.11643 -0.574544
thorax -7.72926 1.52892 -0.635053
lowerneck -0.856173 -9.02808 -12.2162
upperneck 4.71649 -12.502 10.954
head 2.99716 -6.25043 4.76855
rclavicle 9.32314e-014 3.18055e-015
rhumerus -29.9548 5.11018 -87.2676
rradius 32.7618
rwrist 22.3314
rhand -6.52899 -52.2727
rfingers 7.12502
rthumb 19.3238 278.667
lclavicle 9.32314e-014 3.18055e-015
lhumerus -38.703 5.64232 70.1651
lradius 54.1173
lwrist 3.91826
lhand -4.92645 -27.4815
lfingers 7.12502
lthumb 20.8641 1.41663
rfemur -3.83013 11.2222 22.1873
rtibia 26.1892
rfoot -27.3389 -31.8911
rtoes 12.9105
lfemur -11.0433 -17.9667 -23.3434
ltibia 28.7479
lfoot -22.0674 16.1985
ltoes -46.1193
2963
root 7.66618 15.2725 39.2655 363.514 191.903 -358.643
lowerback 7.08381 2.39488 -0.795179
upperback -3.53757 3.04674 -0.608128
thorax -7.70245 1.49904 -0.607031
lowerneck -0.534003 -9.23387 -12.4388
upperneck 4.55257 -12.8126 11.1103
head 2.95657 -6.41535 4.8458
rclavicle -2.15448e-014 1.59028e-015
rhumerus -30.2532 5.54254 -87.42
rradius 32.97
rwrist 22.0387
rhand -5.10545 -52.5041
rfingers 7.12502
rthumb 20.6921 278.579
lclavicle -2.15448e-014 1.59028e-015
lhumerus -39.989 4.33432 70.379
lradius 54.9713
lwrist 5.22229
lhand -4.56539 -26.8473
lfingers 7.12502
lthumb 21.2109 2.01221
rfemur -3.70087 11.473 22.1024
rtibia 26.2733
rfoot -27.5562 -31.7678
rtoes 12.6184
lfemur -10.6718 -18.4791 -23.5879
ltibia 28.6522
lfoot -22.4242 16.7309
ltoes -44.7917
